<?xml version="1.0" standalone="no"?>
<!DOCTYPE svg PUBLIC "-//W3C//DTD SVG 20010904//EN"
 "http://www.w3.org/TR/2001/REC-SVG-20010904/DTD/svg10.dtd">
<svg version="1.0" xmlns="http://www.w3.org/2000/svg"
 width="55.000000pt" height="53.000000pt" viewBox="0 0 55.000000 53.000000"
 preserveAspectRatio="xMidYMid meet">

<g transform="translate(0.000000,53.000000) scale(0.100000,-0.100000)"
fill="#000000" stroke="none">
<path d="M189 511 c-14 -3 -40 -22 -57 -42 -37 -43 -42 -84 -11 -94 18 -6 19
-8 4 -19 -21 -15 -11 -61 17 -80 18 -13 18 -16 5 -42 -14 -26 -15 -27 -21 -7
-12 38 -47 73 -72 73 -30 0 -42 -25 -22 -48 9 -9 18 -35 21 -57 3 -22 8 -47
12 -56 4 -11 -5 -29 -25 -53 -51 -58 -15 -94 40 -41 l27 26 28 -23 c25 -20 41
-23 107 -22 64 0 84 4 107 22 24 18 30 19 35 7 8 -22 36 -18 36 5 0 10 8 24
19 29 14 8 24 4 46 -19 30 -31 65 -40 65 -16 0 8 -15 32 -34 55 -35 42 -39 81
-8 81 12 0 14 9 9 50 -4 29 -2 50 3 50 18 0 10 28 -15 58 -14 17 -25 37 -25
45 0 9 -8 22 -18 29 -10 7 -21 21 -25 30 -3 9 -22 20 -42 24 -19 3 -39 12 -43
19 -8 14 -124 26 -163 16z m35 -25 c-5 -12 0 -13 31 -5 29 8 44 7 70 -5 18 -9
38 -16 44 -16 6 0 15 -9 21 -19 5 -11 19 -23 30 -26 11 -3 20 -15 20 -25 0
-10 11 -28 24 -41 20 -19 21 -25 10 -36 -9 -10 -11 -21 -4 -38 7 -19 6 -25 -4
-25 -8 0 -17 16 -20 38 -8 43 -26 92 -34 92 -3 0 -16 -9 -28 -21 -33 -31 -47
-15 -23 25 19 33 19 34 0 39 -15 4 -18 1 -14 -12 5 -11 -1 -10 -19 7 -42 38
-138 21 -138 -25 0 -7 -4 -13 -9 -13 -5 0 -7 9 -4 20 6 22 -8 26 -38 10 -15
-8 -19 -7 -19 4 0 8 3 16 8 18 4 2 17 16 30 32 12 16 22 23 22 16 0 -9 6 -8
23 3 28 20 27 20 21 3z m63 -92 c3 -8 0 -21 -7 -27 -10 -9 -11 -9 -6 1 5 7 1
12 -9 12 -10 0 -13 -5 -9 -12 4 -6 3 -8 -4 -5 -14 10 -3 47 14 47 8 0 17 -7
21 -16z m42 -58 l22 -23 -32 -7 c-23 -4 -41 0 -65 15 -42 25 -43 33 -5 24 17
-3 32 -2 36 4 9 16 19 13 44 -13z m-139 -1 c0 -2 -9 -9 -19 -14 -14 -8 -20 -7
-25 4 -4 11 2 15 19 15 14 0 25 -2 25 -5z m60 -40 l34 -35 -27 0 c-17 0 -27 5
-27 14 0 9 -7 12 -20 9 -21 -5 -25 3 -14 31 9 23 16 20 54 -19z m100 1 c0 -11
-19 -15 -25 -6 -3 5 1 10 9 10 9 0 16 -2 16 -4z m44 -12 c5 -14 4 -15 -9 -4
-17 14 -19 20 -6 20 5 0 12 -7 15 -16z m-89 -12 c-3 -3 -11 0 -18 7 -9 10 -8
11 6 5 10 -3 15 -9 12 -12z m60 -13 c11 -17 -1 -21 -15 -4 -8 9 -8 15 -2 15 6
0 14 -5 17 -11z m-170 -19 c-20 -23 -29 -21 -19 4 3 9 13 16 22 16 13 0 12 -3
-3 -20z m72 -6 c-3 -3 -12 -4 -19 -1 -8 3 -5 6 6 6 11 1 17 -2 13 -5z m-164
-42 c4 -21 3 -31 -3 -27 -6 3 -10 20 -10 37 0 38 5 34 13 -10z m224 22 c3 -9
13 -14 24 -11 11 3 19 0 19 -5 0 -6 7 -16 15 -22 16 -12 30 -70 14 -60 -6 3
-7 -5 -4 -23 l7 -28 -22 32 c-12 19 -27 30 -35 27 -8 -3 -20 4 -27 16 -7 12
-34 33 -60 46 -54 27 -61 39 -20 31 15 -2 36 -1 47 3 29 12 35 12 42 -6z m140
-77 c35 -39 61 -73 58 -75 -4 -5 -41 34 -109 116 -54 63 -10 29 51 -41z m-312
52 c4 -6 1 -16 -7 -22 -8 -7 -36 -38 -63 -70 -26 -32 -50 -55 -53 -53 -2 3 21
33 52 68 31 35 54 69 51 76 -5 15 11 16 20 1z m85 -17 c0 -11 -34 -42 -47 -42
-17 0 -17 10 2 37 13 19 45 23 45 5z m-43 -108 c-3 -3 -12 -4 -19 -1 -8 3 -5
6 6 6 11 1 17 -2 13 -5z"/>
<path d="M380 140 c0 -5 5 -10 11 -10 5 0 7 5 4 10 -3 6 -8 10 -11 10 -2 0 -4
-4 -4 -10z"/>
</g>
</svg>
